<?xml version="1.0" encoding="UTF-8" standalone="no"?> <!-- Created with Vectornator (http://vectornator.io/) --><!DOCTYPE svg PUBLIC "-//W3C//DTD SVG 1.1//EN" "http://www.w3.org/Graphics/SVG/1.1/DTD/svg11.dtd">
<svg height="100%" stroke-miterlimit="10" style="fill-rule:nonzero;clip-rule:evenodd;stroke-linecap:round;stroke-linejoin:round;" version="1.1" viewBox="0 0 850 850" width="100%" xml:space="preserve" xmlns="http://www.w3.org/2000/svg" xmlns:vectornator="http://vectornator.io" xmlns:xlink="http://www.w3.org/1999/xlink">
<metadata>
<vectornator:setting key="IsTimeLapseWatermarkDisabled" value="false"/>
<vectornator:setting key="UndoHistoryDisabled" value="true"/>
<vectornator:setting key="VNDimensionsVisible" value="true"/>
<vectornator:setting key="VNSnapToGuides" value="true"/>
<vectornator:setting key="WDCMYKEnabledKey" value="false"/>
<vectornator:setting key="WDDisplayWhiteBackground" value="false"/>
<vectornator:setting key="WDDynamicGuides" value="false"/>
<vectornator:setting key="WDGuidesVisible" value="true"/>
<vectornator:setting key="WDIsolateActiveLayer" value="false"/>
<vectornator:setting key="WDOutlineMode" value="false"/>
<vectornator:setting key="WDRulersVisible" value="true"/>
<vectornator:setting key="WDSnapToEdges" value="false"/>
<vectornator:setting key="WDSnapToGrid" value="false"/>
<vectornator:setting key="WDSnapToPoints" value="false"/>
<vectornator:setting key="WDUnits" value="Pixels"/>
</metadata>
<defs>
<filter color-interpolation-filters="sRGB" filterUnits="userSpaceOnUse" height="797.699" id="Filter" width="750.92" x="0" y="0">
<feDropShadow dx="10.3614" dy="14.0548" flood-color="#ffffff" flood-opacity="1" height="797.699" stdDeviation="0" width="750.92"/>
</filter>
<filter color-interpolation-filters="sRGB" filterUnits="userSpaceOnUse" height="797.699" id="Filter_2" width="814.551" x="210.161" y="0">
<feDropShadow dx="10.3614" dy="14.0548" flood-color="#ffffff" flood-opacity="1" height="797.699" stdDeviation="0" width="814.551"/>
</filter>
<filter color-interpolation-filters="sRGB" filterUnits="userSpaceOnUse" height="797.699" id="Filter_3" width="750.92" x="0" y="9.80009">
<feDropShadow dx="10.3614" dy="14.0548" flood-color="#ffffff" flood-opacity="1" height="797.699" stdDeviation="0" width="750.92"/>
</filter>
<filter color-interpolation-filters="sRGB" filterUnits="userSpaceOnUse" height="797.699" id="Filter_4" width="814.551" x="210.161" y="9.80009">
<feDropShadow dx="10.3614" dy="14.0548" flood-color="#ffffff" flood-opacity="1" height="797.699" stdDeviation="0" width="814.551"/>
</filter>
<filter color-interpolation-filters="sRGB" filterUnits="userSpaceOnUse" height="785.12" id="Filter_5" width="675.823" x="0" y="308.139">
<feDropShadow dx="10.3614" dy="14.0548" flood-color="#ffffff" flood-opacity="1" height="785.12" stdDeviation="0" width="675.823"/>
</filter>
<filter color-interpolation-filters="sRGB" filterUnits="userSpaceOnUse" height="797.699" id="Filter_6" width="858.119" x="178.517" y="299.753">
<feDropShadow dx="10.3614" dy="14.0548" flood-color="#ffffff" flood-opacity="1" height="797.699" stdDeviation="0" width="858.119"/>
</filter>
<clipPath id="TextBounds">
<rect height="0.767848" width="52.3" x="617.265" y="982.557"/>
</clipPath>
<filter color-interpolation-filters="sRGB" filterUnits="userSpaceOnUse" height="25.9857" id="Filter_7" width="180.582" x="553.124" y="969.948">
<feDropShadow dx="7.02646" dy="9.53103" flood-color="#ffffff" flood-opacity="1" height="25.9857" stdDeviation="0" width="180.582"/>
</filter>
<clipPath id="TextBounds_2">
<rect height="0.767848" width="52.3" x="899.833" y="951.459"/>
</clipPath>
<filter color-interpolation-filters="sRGB" filterUnits="userSpaceOnUse" height="25.9857" id="Filter_8" width="180.582" x="835.692" y="938.85">
<feDropShadow dx="7.02646" dy="9.53103" flood-color="#ffffff" flood-opacity="1" height="25.9857" stdDeviation="0" width="180.582"/>
</filter>
<clipPath id="TextBounds_3">
<rect height="4.60709" width="45.7" x="545.855" y="-148.099"/>
</clipPath>
<filter color-interpolation-filters="sRGB" filterUnits="userSpaceOnUse" height="48.7438" id="Filter_9" width="172.023" x="482.694" y="0">
<feDropShadow dx="10.3614" dy="14.0548" flood-color="#ffffff" flood-opacity="1" height="48.7438" stdDeviation="0" width="172.023"/>
</filter>
</defs>
<g id="Calque-1" vectornator:layerName="Calque 1">
<path d="M175.338 39.0385L175.338 125.245L286.741 23.2731C292.092 18.3534 296.646 14.7196 300.404 12.3715C304.162 10.0235 309.162 8.84949 315.404 8.84949C323.557 8.84949 330.149 10.946 335.181 15.1389C340.213 19.3318 342.729 24.4472 342.729 30.485C342.729 37.7527 338.462 44.9645 329.926 52.1204L260.945 109.48L340.436 209.439C346.041 216.371 350.245 222.437 353.048 227.636C355.85 232.835 357.252 237.895 357.252 242.814C357.252 248.293 354.799 253.045 349.895 257.07C344.99 261.096 338.334 263.108 329.926 263.108C322.028 263.108 315.595 261.627 310.627 258.664C305.659 255.701 301.455 251.759 298.015 246.84C294.576 241.92 291.518 237.448 288.843 233.422L221.772 142.855L175.338 181.933L175.338 232.751C175.338 243.038 172.663 250.669 167.313 255.645C161.962 260.62 155.083 263.108 146.675 263.108C141.835 263.108 137.185 261.99 132.726 259.754C128.268 257.518 124.828 254.499 122.408 250.697C120.624 247.566 119.541 243.933 119.159 239.796C118.777 235.659 118.586 229.677 118.586 221.85L118.586 39.0385C118.586 28.9755 121.102 21.4283 126.134 16.3967C131.166 11.3652 138.013 8.84949 146.675 8.84949C155.211 8.84949 162.122 11.3373 167.408 16.3129C172.695 21.2885 175.338 28.8637 175.338 39.0385Z" fill="#000000" fill-rule="evenodd" filter="url(#Filter)" opacity="1" stroke="none" vectornator:shadowAngle="0.935525" vectornator:shadowColor="#ffffff" vectornator:shadowOffset="17.4613" vectornator:shadowOpacity="1" vectornator:shadowRadius="0"/>
<path d="M686.801 231.074L673.425 200.214L559.538 200.214L546.162 231.745C540.939 244.044 536.48 252.346 532.786 256.651C529.091 260.956 523.04 263.108 514.633 263.108C507.499 263.108 501.193 260.816 495.715 256.232C490.237 251.648 487.499 246.448 487.499 240.634C487.499 237.28 488.135 233.814 489.409 230.236C490.683 226.658 492.785 221.682 495.715 215.309L567.372 55.6425C569.41 51.0582 571.863 45.5515 574.729 39.1224C577.595 32.6932 580.653 27.3542 583.901 23.1054C587.15 18.8566 591.417 15.4184 596.704 12.7908C601.991 10.1633 608.519 8.84949 616.29 8.84949C624.188 8.84949 630.781 10.1633 636.067 12.7908C641.354 15.4184 645.622 18.8007 648.87 22.9377C652.119 27.0747 654.858 31.5192 657.087 36.2712C659.316 41.0232 662.151 47.3685 665.59 55.3071L738.776 213.967C744.509 226.043 747.375 234.82 747.375 240.299C747.375 246.001 744.668 251.228 739.254 255.98C733.84 260.732 727.311 263.108 719.667 263.108C715.209 263.108 711.387 262.409 708.202 261.012C705.018 259.614 702.342 257.713 700.177 255.309C698.011 252.905 695.686 249.216 693.202 244.24C690.718 239.264 688.584 234.876 686.801 231.074ZM574.442 162.814L658.138 162.814L615.908 61.3449L574.442 162.814Z" fill="#000000" fill-rule="evenodd" filter="url(#Filter_2)" opacity="1" stroke="none" vectornator:shadowAngle="0.935525" vectornator:shadowColor="#ffffff" vectornator:shadowOffset="17.4613" vectornator:shadowOpacity="1" vectornator:shadowRadius="0"/>
<path d="M175.338 311.709L175.338 397.916L286.741 295.944C292.092 291.024 296.646 287.39 300.404 285.042C304.162 282.694 309.162 281.52 315.404 281.52C323.557 281.52 330.149 283.617 335.181 287.809C340.213 292.002 342.729 297.118 342.729 303.156C342.729 310.423 338.462 317.635 329.926 324.791L260.945 382.15L340.436 482.109C346.041 489.042 350.245 495.107 353.048 500.307C355.85 505.506 357.252 510.565 357.252 515.485C357.252 520.964 354.799 525.716 349.895 529.741C344.99 533.766 338.334 535.779 329.926 535.779C322.028 535.779 315.595 534.297 310.627 531.334C305.659 528.371 301.455 524.43 298.015 519.51C294.576 514.591 291.518 510.118 288.843 506.093L221.772 415.526L175.338 454.604L175.338 505.422C175.338 515.709 172.663 523.34 167.313 528.315C161.962 533.291 155.083 535.779 146.675 535.779C141.835 535.779 137.185 534.661 132.726 532.424C128.268 530.188 124.828 527.169 122.408 523.368C120.624 520.237 119.541 516.603 119.159 512.466C118.777 508.329 118.586 502.347 118.586 494.52L118.586 311.709C118.586 301.646 121.102 294.099 126.134 289.067C131.166 284.036 138.013 281.52 146.675 281.52C155.211 281.52 162.122 284.008 167.408 288.983C172.695 293.959 175.338 301.534 175.338 311.709Z" fill="#000000" fill-rule="evenodd" filter="url(#Filter_3)" opacity="1" stroke="none" vectornator:shadowAngle="0.935525" vectornator:shadowColor="#ffffff" vectornator:shadowOffset="17.4613" vectornator:shadowOpacity="1" vectornator:shadowRadius="0"/>
<path d="M686.801 503.745L673.425 472.885L559.538 472.885L546.162 504.416C540.939 516.715 536.48 525.017 532.786 529.322C529.091 533.626 523.04 535.779 514.633 535.779C507.499 535.779 501.193 533.487 495.715 528.902C490.237 524.318 487.499 519.119 487.499 513.305C487.499 509.95 488.135 506.484 489.409 502.906C490.683 499.328 492.785 494.353 495.715 487.979L567.372 328.313C569.41 323.729 571.863 318.222 574.729 311.793C577.595 305.364 580.653 300.025 583.901 295.776C587.15 291.527 591.417 288.089 596.704 285.461C601.991 282.834 608.519 281.52 616.29 281.52C624.188 281.52 630.781 282.834 636.067 285.461C641.354 288.089 645.622 291.471 648.87 295.608C652.119 299.745 654.858 304.19 657.087 308.942C659.316 313.694 662.151 320.039 665.59 327.978L738.776 486.638C744.509 498.713 747.375 507.491 747.375 512.969C747.375 518.672 744.668 523.899 739.254 528.651C733.84 533.403 727.311 535.779 719.667 535.779C715.209 535.779 711.387 535.08 708.202 533.682C705.018 532.285 702.342 530.384 700.177 527.98C698.011 525.576 695.686 521.886 693.202 516.911C690.718 511.935 688.584 507.546 686.801 503.745ZM574.442 435.484L658.138 435.484L615.908 334.015L574.442 435.484Z" fill="#000000" fill-rule="evenodd" filter="url(#Filter_4)" opacity="1" stroke="none" vectornator:shadowAngle="0.935525" vectornator:shadowColor="#ffffff" vectornator:shadowOffset="17.4613" vectornator:shadowOpacity="1" vectornator:shadowRadius="0"/>
<path d="M231.403 725.773L179.427 725.773L179.427 795.375C179.427 805.326 176.752 812.874 171.402 818.017C166.051 823.16 159.3 825.732 151.147 825.732C142.612 825.732 135.732 823.188 130.509 818.101C125.286 813.013 122.675 805.55 122.675 795.711L122.675 606.191C122.675 595.233 125.541 587.406 131.274 582.71C137.006 578.014 146.115 575.666 158.599 575.666L231.403 575.666C252.932 575.666 269.492 577.12 281.085 580.027C292.55 582.822 302.455 587.462 310.799 593.947C319.143 600.432 325.48 608.371 329.812 617.763C334.143 627.155 336.309 637.721 336.309 649.461C336.309 674.507 327.519 693.487 309.939 706.401C292.359 719.316 266.18 725.773 231.403 725.773ZM217.644 613.067L179.427 613.067L179.427 688.204L217.644 688.204C231.02 688.204 242.199 686.974 251.18 684.514C260.161 682.054 267.008 678.029 271.722 672.439C276.435 666.848 278.792 659.525 278.792 650.468C278.792 639.622 275.161 630.789 267.9 623.969C259.747 616.701 242.995 613.067 217.644 613.067Z" fill="#000000" fill-rule="evenodd" filter="url(#Filter_5)" opacity="1" stroke="none" vectornator:shadowAngle="0.935525" vectornator:shadowColor="#ffffff" vectornator:shadowOffset="17.4613" vectornator:shadowOpacity="1" vectornator:shadowRadius="0"/>
<path d="M606.621 571.473C635.666 571.473 660.603 576.644 681.431 586.987C702.259 597.33 718.024 612.033 728.725 631.097C739.425 650.16 744.776 672.551 744.776 698.267C744.776 717.275 741.846 734.55 735.986 750.092C730.126 765.633 721.336 779.107 709.616 790.511C697.896 801.916 683.501 810.637 666.431 816.675C649.36 822.713 629.806 825.732 607.768 825.732C585.856 825.732 566.238 822.629 548.913 816.424C531.588 810.218 517.129 801.469 505.537 790.176C493.944 778.883 485.186 765.298 479.263 749.421C473.339 733.544 470.377 716.381 470.377 697.932C470.377 679.036 473.466 661.705 479.645 645.939C485.823 630.174 494.772 616.757 506.492 605.687C518.212 594.618 532.48 586.148 549.295 580.278C566.111 574.408 585.219 571.473 606.621 571.473ZM687.259 697.932C687.259 679.93 683.947 664.332 677.323 651.139C670.698 637.945 661.24 627.966 648.946 621.201C636.653 614.437 622.545 611.054 606.621 611.054C595.283 611.054 584.805 612.927 575.187 616.673C565.57 620.419 557.289 625.869 550.346 633.025C543.404 640.181 537.926 649.322 533.913 660.447C529.9 671.572 527.894 684.067 527.894 697.932C527.894 711.908 529.9 724.543 533.913 735.836C537.926 747.129 543.595 756.493 550.92 763.928C558.245 771.364 566.652 776.926 576.143 780.616C585.633 784.306 596.048 786.151 607.385 786.151C621.908 786.151 635.252 782.964 647.418 776.591C659.584 770.218 669.265 760.378 676.463 747.073C683.66 733.767 687.259 717.387 687.259 697.932Z" fill="#000000" fill-rule="evenodd" filter="url(#Filter_6)" opacity="1" stroke="none" vectornator:shadowAngle="0.935525" vectornator:shadowColor="#ffffff" vectornator:shadowOffset="17.4613" vectornator:shadowOpacity="1" vectornator:shadowRadius="0"/>
<g fill="#000000" filter="url(#Filter_7)" opacity="1" stroke="none" vectornator:shadowAngle="0.935525" vectornator:shadowColor="#ffffff" vectornator:shadowOffset="11.8411" vectornator:shadowOpacity="1" vectornator:shadowRadius="0">
<path clip-path="url(#TextBounds)" d="M794.144 1095.64L743.044 1095.64L743.044 1263.6C743.044 1273.28 740.889 1280.45 736.578 1285.13C732.267 1289.81 726.695 1292.15 719.86 1292.15C712.921 1292.15 707.269 1289.79 702.906 1285.05C698.543 1280.32 696.361 1273.17 696.361 1263.6L696.361 1095.64L645.261 1095.64C637.27 1095.64 631.33 1093.88 627.439 1090.36C623.549 1086.83 621.604 1082.18 621.604 1076.4C621.604 1070.4 623.628 1065.67 627.676 1062.2C631.724 1058.73 637.586 1057 645.261 1057L794.144 1057C802.24 1057 808.259 1058.79 812.202 1062.36C816.145 1065.94 818.117 1070.61 818.117 1076.4C818.117 1082.18 816.119 1086.83 812.124 1090.36C808.128 1093.88 802.135 1095.64 794.144 1095.64Z" fill-rule="evenodd"/>
<path clip-path="url(#TextBounds)" d="M761.182 1588.97L676.962 1588.97C677.067 1598.75 679.038 1607.37 682.876 1614.84C686.714 1622.3 691.813 1627.93 698.175 1631.71C704.536 1635.5 711.554 1637.39 719.229 1637.39C724.381 1637.39 729.087 1636.78 733.345 1635.58C737.603 1634.37 741.73 1632.47 745.726 1629.9C749.721 1627.32 753.401 1624.56 756.766 1621.62C760.13 1618.67 764.494 1614.68 769.856 1609.63C772.064 1607.74 775.218 1606.79 779.319 1606.79C783.735 1606.79 787.31 1608 790.043 1610.42C792.777 1612.84 794.144 1616.26 794.144 1620.67C794.144 1624.56 792.619 1629.11 789.57 1634.31C786.521 1639.52 781.921 1644.51 775.77 1649.3C769.619 1654.08 761.891 1658.05 752.586 1661.2C743.281 1664.36 732.583 1665.94 720.491 1665.94C692.839 1665.94 671.337 1658.05 655.986 1642.28C640.635 1626.51 632.959 1605.11 632.959 1578.09C632.959 1565.37 634.852 1553.56 638.637 1542.68C642.422 1531.8 647.942 1522.47 655.197 1514.69C662.452 1506.91 671.389 1500.94 682.009 1496.79C692.628 1492.63 704.404 1490.56 717.337 1490.56C734.16 1490.56 748.591 1494.11 760.63 1501.2C772.669 1508.3 781.685 1517.47 787.678 1528.72C793.671 1539.97 796.667 1551.43 796.667 1563.11C796.667 1573.94 793.566 1580.95 787.362 1584.16C781.159 1587.37 772.432 1588.97 761.182 1588.97ZM676.962 1564.52L755.031 1564.52C753.979 1549.8 750.01 1538.79 743.123 1531.48C736.236 1524.18 727.168 1520.52 715.917 1520.52C705.193 1520.52 696.387 1524.23 689.5 1531.64C682.613 1539.05 678.434 1550.02 676.962 1564.52Z" fill-rule="evenodd"/>
<path clip-path="url(#TextBounds)" d="M734.37 2021.9L703.143 1976L671.126 2021.9C666.5 2028.31 662.584 2032.89 659.377 2035.62C656.17 2038.35 652.096 2039.72 647.154 2039.72C641.686 2039.72 637.034 2038.01 633.196 2034.59C629.358 2031.18 627.439 2027.26 627.439 2022.84C627.439 2018.32 630.383 2011.86 636.271 2003.45L675.227 1947.61L640.687 1901.09C634.694 1893.41 631.698 1886.74 631.698 1881.06C631.698 1876.64 633.485 1872.8 637.06 1869.55C640.635 1866.29 645.314 1864.66 651.097 1864.66C656.144 1864.66 660.323 1866.08 663.635 1868.91C666.947 1871.75 670.811 1876.22 675.227 1882.32L703.143 1920.49L730.27 1882.32C734.791 1876.01 738.707 1871.49 742.019 1868.76C745.331 1866.02 749.458 1864.66 754.4 1864.66C760.078 1864.66 764.783 1866.26 768.515 1869.47C772.248 1872.67 774.114 1876.54 774.114 1881.06C774.114 1884.32 773.352 1887.45 771.827 1890.44C770.303 1893.44 767.963 1896.99 764.809 1901.09L730.27 1947.61L769.225 2003.45C775.323 2012.17 778.373 2018.74 778.373 2023.16C778.373 2027.68 776.48 2031.57 772.695 2034.83C768.91 2038.09 764.231 2039.72 758.658 2039.72C753.716 2039.72 749.537 2038.3 746.12 2035.46C742.703 2032.62 738.786 2028.1 734.37 2021.9Z" fill-rule="evenodd"/>
<path clip-path="url(#TextBounds)" d="M643.369 2242.23L648.1 2242.23L648.1 2216.36C648.1 2209.42 648.284 2203.98 648.652 2200.04C649.02 2196.09 650.045 2192.7 651.728 2189.86C653.41 2186.92 655.828 2184.53 658.982 2182.69C662.137 2180.85 665.659 2179.93 669.549 2179.93C675.017 2179.93 679.958 2181.98 684.374 2186.08C687.318 2188.81 689.185 2192.15 689.973 2196.09C690.762 2200.04 691.156 2205.64 691.156 2212.89L691.156 2242.23L706.928 2242.23C713.026 2242.23 717.679 2243.67 720.885 2246.56C724.092 2249.45 725.696 2253.16 725.696 2257.68C725.696 2263.46 723.409 2267.51 718.835 2269.83C714.261 2272.14 707.716 2273.3 699.2 2273.3L691.156 2273.3L691.156 2352.47C691.156 2359.2 691.393 2364.38 691.866 2368C692.339 2371.63 693.601 2374.57 695.651 2376.84C697.701 2379.1 701.04 2380.23 705.666 2380.23C708.189 2380.23 711.607 2379.78 715.917 2378.89C720.228 2377.99 723.593 2377.54 726.011 2377.54C729.481 2377.54 732.609 2378.94 735.395 2381.72C738.182 2384.51 739.575 2387.95 739.575 2392.05C739.575 2398.99 735.79 2404.3 728.219 2407.98C720.649 2411.66 709.767 2413.5 695.572 2413.5C682.114 2413.5 671.915 2411.24 664.976 2406.72C658.036 2402.2 653.489 2395.94 651.333 2387.95C649.178 2379.96 648.1 2369.29 648.1 2355.94L648.1 2273.3L642.422 2273.3C636.219 2273.3 631.487 2271.82 628.228 2268.88C624.969 2265.94 623.339 2262.2 623.339 2257.68C623.339 2253.16 625.047 2249.45 628.465 2246.56C631.882 2243.67 636.85 2242.23 643.369 2242.23Z" fill-rule="evenodd"/>
<path clip-path="url(#TextBounds)" d="M761.182 2710.32L676.962 2710.32C677.067 2720.1 679.038 2728.72 682.876 2736.19C686.714 2743.65 691.813 2749.28 698.175 2753.06C704.536 2756.85 711.554 2758.74 719.229 2758.74C724.381 2758.74 729.087 2758.14 733.345 2756.93C737.603 2755.72 741.73 2753.83 745.726 2751.25C749.721 2748.67 753.401 2745.91 756.766 2742.97C760.13 2740.03 764.494 2736.03 769.856 2730.98C772.064 2729.09 775.218 2728.14 779.319 2728.14C783.735 2728.14 787.31 2729.35 790.043 2731.77C792.777 2734.19 794.144 2737.61 794.144 2742.02C794.144 2745.91 792.619 2750.46 789.57 2755.67C786.521 2760.87 781.921 2765.87 775.77 2770.65C769.619 2775.43 761.891 2779.4 752.586 2782.56C743.281 2785.71 732.583 2787.29 720.491 2787.29C692.839 2787.29 671.337 2779.4 655.986 2763.63C640.635 2747.86 632.959 2726.46 632.959 2699.44C632.959 2686.72 634.852 2674.92 638.637 2664.03C642.422 2653.15 647.942 2643.82 655.197 2636.04C662.452 2628.26 671.389 2622.29 682.009 2618.14C692.628 2613.99 704.404 2611.91 717.337 2611.91C734.16 2611.91 748.591 2615.46 760.63 2622.55C772.669 2629.65 781.685 2638.83 787.678 2650.08C793.671 2661.33 796.667 2672.79 796.667 2684.46C796.667 2695.29 793.566 2702.31 787.362 2705.51C781.159 2708.72 772.432 2710.32 761.182 2710.32ZM676.962 2685.88L755.031 2685.88C753.979 2671.16 750.01 2660.14 743.123 2652.84C736.236 2645.53 727.168 2641.87 715.917 2641.87C705.193 2641.87 696.387 2645.58 689.5 2652.99C682.613 2660.41 678.434 2671.37 676.962 2685.88Z" fill-rule="evenodd"/>
</g>
<g fill="#000000" filter="url(#Filter_8)" opacity="1" stroke="none" vectornator:shadowAngle="0.935525" vectornator:shadowColor="#ffffff" vectornator:shadowOffset="11.8411" vectornator:shadowOpacity="1" vectornator:shadowRadius="0">
<path clip-path="url(#TextBounds_2)" d="M1076.71 1064.54L1025.61 1064.54L1025.61 1232.51C1025.61 1242.18 1023.46 1249.36 1019.15 1254.04C1014.84 1258.71 1009.26 1261.05 1002.43 1261.05C995.489 1261.05 989.837 1258.69 985.474 1253.96C981.11 1249.22 978.929 1242.08 978.929 1232.51L978.929 1064.54L927.829 1064.54C919.838 1064.54 913.898 1062.78 910.007 1059.26C906.117 1055.74 904.172 1051.08 904.172 1045.3C904.172 1039.31 906.196 1034.57 910.244 1031.11C914.292 1027.64 920.154 1025.9 927.829 1025.9L1076.71 1025.9C1084.81 1025.9 1090.83 1027.69 1094.77 1031.26C1098.71 1034.84 1100.68 1039.52 1100.68 1045.3C1100.68 1051.08 1098.69 1055.74 1094.69 1059.26C1090.7 1062.78 1084.7 1064.54 1076.71 1064.54Z" fill-rule="evenodd"/>
<path clip-path="url(#TextBounds_2)" d="M1043.75 1557.87L959.53 1557.87C959.635 1567.65 961.606 1576.27 965.444 1583.74C969.282 1591.2 974.381 1596.83 980.742 1600.61C987.104 1604.4 994.122 1606.29 1001.8 1606.29C1006.95 1606.29 1011.65 1605.69 1015.91 1604.48C1020.17 1603.27 1024.3 1601.38 1028.29 1598.8C1032.29 1596.22 1035.97 1593.46 1039.33 1590.52C1042.7 1587.58 1047.06 1583.58 1052.42 1578.53C1054.63 1576.64 1057.79 1575.69 1061.89 1575.69C1066.3 1575.69 1069.88 1576.9 1072.61 1579.32C1075.35 1581.74 1076.71 1585.16 1076.71 1589.57C1076.71 1593.46 1075.19 1598.01 1072.14 1603.22C1069.09 1608.42 1064.49 1613.41 1058.34 1618.2C1052.19 1622.98 1044.46 1626.95 1035.15 1630.11C1025.85 1633.26 1015.15 1634.84 1003.06 1634.84C975.406 1634.84 953.905 1626.95 938.554 1611.18C923.203 1595.41 915.527 1574.01 915.527 1546.99C915.527 1534.27 917.42 1522.47 921.205 1511.58C924.99 1500.7 930.51 1491.37 937.765 1483.59C945.02 1475.81 953.957 1469.84 964.577 1465.69C975.196 1461.54 986.972 1459.46 999.905 1459.46C1016.73 1459.46 1031.16 1463.01 1043.2 1470.1C1055.24 1477.2 1064.25 1486.38 1070.25 1497.63C1076.24 1508.88 1079.24 1520.34 1079.24 1532.01C1079.24 1542.84 1076.13 1549.86 1069.93 1553.06C1063.73 1556.27 1055 1557.87 1043.75 1557.87ZM959.53 1533.43L1037.6 1533.43C1036.55 1518.71 1032.58 1507.69 1025.69 1500.39C1018.8 1493.08 1009.74 1489.42 998.485 1489.42C987.761 1489.42 978.955 1493.13 972.068 1500.54C965.181 1507.96 961.002 1518.92 959.53 1533.43Z" fill-rule="evenodd"/>
<path clip-path="url(#TextBounds_2)" d="M1016.94 1990.8L985.71 1944.91L953.694 1990.8C949.068 1997.21 945.151 2001.79 941.945 2004.52C938.738 2007.25 934.663 2008.62 929.722 2008.62C924.254 2008.62 919.602 2006.91 915.764 2003.5C911.926 2000.08 910.007 1996.16 910.007 1991.75C910.007 1987.23 912.951 1980.76 918.839 1972.35L957.795 1916.52L923.255 1869.99C917.262 1862.32 914.266 1855.64 914.266 1849.96C914.266 1845.54 916.053 1841.71 919.628 1838.45C923.203 1835.19 927.882 1833.56 933.665 1833.56C938.711 1833.56 942.891 1834.98 946.203 1837.82C949.515 1840.66 953.379 1845.12 957.795 1851.22L985.71 1889.39L1012.84 1851.22C1017.36 1844.91 1021.28 1840.39 1024.59 1837.66C1027.9 1834.93 1032.03 1833.56 1036.97 1833.56C1042.65 1833.56 1047.35 1835.16 1051.08 1838.37C1054.82 1841.58 1056.68 1845.44 1056.68 1849.96C1056.68 1853.22 1055.92 1856.35 1054.4 1859.34C1052.87 1862.34 1050.53 1865.89 1047.38 1869.99L1012.84 1916.52L1051.79 1972.35C1057.89 1981.07 1060.94 1987.65 1060.94 1992.06C1060.94 1996.58 1059.05 2000.47 1055.26 2003.73C1051.48 2006.99 1046.8 2008.62 1041.23 2008.62C1036.28 2008.62 1032.1 2007.2 1028.69 2004.36C1025.27 2001.52 1021.35 1997 1016.94 1990.8Z" fill-rule="evenodd"/>
<path clip-path="url(#TextBounds_2)" d="M925.937 2211.13L930.668 2211.13L930.668 2185.26C930.668 2178.32 930.852 2172.88 931.22 2168.94C931.588 2165 932.613 2161.61 934.295 2158.77C935.978 2155.82 938.396 2153.43 941.55 2151.59C944.705 2149.75 948.227 2148.83 952.117 2148.83C957.585 2148.83 962.526 2150.88 966.942 2154.98C969.886 2157.71 971.753 2161.05 972.541 2165C973.33 2168.94 973.724 2174.54 973.724 2181.79L973.724 2211.13L989.496 2211.13C995.594 2211.13 1000.25 2212.57 1003.45 2215.46C1006.66 2218.36 1008.26 2222.06 1008.26 2226.58C1008.26 2232.37 1005.98 2236.41 1001.4 2238.73C996.829 2241.04 990.284 2242.2 981.768 2242.2L973.724 2242.2L973.724 2321.37C973.724 2328.1 973.961 2333.28 974.434 2336.91C974.907 2340.53 976.169 2343.48 978.219 2345.74C980.269 2348 983.608 2349.13 988.234 2349.13C990.757 2349.13 994.175 2348.68 998.485 2347.79C1002.8 2346.89 1006.16 2346.45 1008.58 2346.45C1012.05 2346.45 1015.18 2347.84 1017.96 2350.63C1020.75 2353.41 1022.14 2356.86 1022.14 2360.96C1022.14 2367.9 1018.36 2373.21 1010.79 2376.89C1003.22 2380.57 992.335 2382.41 978.14 2382.41C964.682 2382.41 954.483 2380.15 947.543 2375.62C940.604 2371.1 936.057 2364.85 933.901 2356.86C931.746 2348.87 930.668 2338.19 930.668 2324.84L930.668 2242.2L924.99 2242.2C918.787 2242.2 914.055 2240.73 910.796 2237.78C907.536 2234.84 905.907 2231.1 905.907 2226.58C905.907 2222.06 907.615 2218.36 911.033 2215.46C914.45 2212.57 919.418 2211.13 925.937 2211.13Z" fill-rule="evenodd"/>
<path clip-path="url(#TextBounds_2)" d="M1043.75 2679.23L959.53 2679.23C959.635 2689 961.606 2697.63 965.444 2705.09C969.282 2712.56 974.381 2718.18 980.742 2721.97C987.104 2725.75 994.122 2727.64 1001.8 2727.64C1006.95 2727.64 1011.65 2727.04 1015.91 2725.83C1020.17 2724.62 1024.3 2722.73 1028.29 2720.15C1032.29 2717.58 1035.97 2714.82 1039.33 2711.87C1042.7 2708.93 1047.06 2704.93 1052.42 2699.89C1054.63 2697.99 1057.79 2697.05 1061.89 2697.05C1066.3 2697.05 1069.88 2698.26 1072.61 2700.67C1075.35 2703.09 1076.71 2706.51 1076.71 2710.93C1076.71 2714.82 1075.19 2719.36 1072.14 2724.57C1069.09 2729.77 1064.49 2734.77 1058.34 2739.55C1052.19 2744.34 1044.46 2748.3 1035.15 2751.46C1025.85 2754.61 1015.15 2756.19 1003.06 2756.19C975.406 2756.19 953.905 2748.3 938.554 2732.53C923.203 2716.76 915.527 2695.36 915.527 2668.34C915.527 2655.62 917.42 2643.82 921.205 2632.94C924.99 2622.05 930.51 2612.72 937.765 2604.94C945.02 2597.16 953.957 2591.19 964.577 2587.04C975.196 2582.89 986.972 2580.81 999.905 2580.81C1016.73 2580.81 1031.16 2584.36 1043.2 2591.46C1055.24 2598.55 1064.25 2607.73 1070.25 2618.98C1076.24 2630.23 1079.24 2641.69 1079.24 2653.36C1079.24 2664.19 1076.13 2671.21 1069.93 2674.42C1063.73 2677.62 1055 2679.23 1043.75 2679.23ZM959.53 2654.78L1037.6 2654.78C1036.55 2640.06 1032.58 2629.05 1025.69 2621.74C1018.8 2614.43 1009.74 2610.78 998.485 2610.78C987.761 2610.78 978.955 2614.48 972.068 2621.9C965.181 2629.31 961.002 2640.27 959.53 2654.78Z" fill-rule="evenodd"/>
</g>
<g fill="#000000" filter="url(#Filter_9)" opacity="1" stroke="none" vectornator:shadowAngle="0.935525" vectornator:shadowColor="#ffffff" vectornator:shadowOffset="17.4613" vectornator:shadowOpacity="1" vectornator:shadowRadius="0">
<path clip-path="url(#TextBounds_3)" d="M686.898-58.1235L646.24-58.1235L646.24 75.5215C646.24 83.2182 644.525 88.9279 641.095 92.6507C637.665 96.3735 633.231 98.2349 627.793 98.2349C622.272 98.2349 617.775 96.3526 614.303 92.5879C610.831 88.8233 609.096 83.1345 609.096 75.5215L609.096-58.1235L568.437-58.1235C562.079-58.1235 557.353-59.5248 554.257-62.3273C551.162-65.1299 549.614-68.8318 549.614-73.4331C549.614-78.2016 551.225-81.9663 554.445-84.727C557.666-87.4877 562.33-88.8681 568.437-88.8681L686.898-88.8681C693.34-88.8681 698.129-87.4459 701.267-84.6015C704.404-81.7571 705.972-78.0343 705.972-73.4331C705.972-68.8318 704.383-65.1299 701.204-62.3273C698.025-59.5248 693.256-58.1235 686.898-58.1235Z" fill-rule="evenodd"/>
<path clip-path="url(#TextBounds_3)" d="M660.671 334.404L593.66 334.404C593.744 342.184 595.313 349.044 598.366 354.984C601.42 360.924 605.477 365.399 610.539 368.411C615.6 371.423 621.184 372.929 627.291 372.929C631.391 372.929 635.134 372.448 638.523 371.486C641.911 370.524 645.194 369.018 648.373 366.968C651.552 364.918 654.48 362.722 657.158 360.38C659.835 358.037 663.306 354.858 667.573 350.843C669.33 349.337 671.84 348.584 675.102 348.584C678.616 348.584 681.46 349.546 683.636 351.47C685.811 353.394 686.898 356.113 686.898 359.627C686.898 362.722 685.685 366.341 683.259 370.482C680.833 374.623 677.173 378.597 672.279 382.403C667.385 386.21 661.236 389.368 653.832 391.877C646.428 394.387 637.916 395.642 628.295 395.642C606.293 395.642 589.185 389.368 576.971 376.819C564.756 364.27 558.649 347.245 558.649 325.745C558.649 315.622 560.155 306.232 563.167 297.573C566.179 288.914 570.571 281.49 576.343 275.299C582.116 269.108 589.227 264.36 597.676 261.056C606.126 257.751 615.495 256.099 625.785 256.099C639.171 256.099 650.653 258.923 660.232 264.57C669.811 270.217 676.985 277.516 681.753 286.467C686.522 295.419 688.906 304.538 688.906 313.824C688.906 322.441 686.438 328.025 681.502 330.576C676.566 333.128 669.623 334.404 660.671 334.404ZM593.66 314.953L655.777 314.953C654.941 303.241 651.782 294.478 646.303 288.663C640.823 282.849 633.608 279.942 624.656 279.942C616.123 279.942 609.116 282.891 603.637 288.789C598.157 294.687 594.832 303.408 593.66 314.953Z" fill-rule="evenodd"/>
<path clip-path="url(#TextBounds_3)" d="M639.338 678.869L614.492 642.352L589.017 678.869C585.336 683.972 582.22 687.612 579.669 689.787C577.117 691.962 573.875 693.049 569.943 693.049C565.593 693.049 561.891 691.69 558.837 688.971C555.784 686.252 554.257 683.136 554.257 679.622C554.257 676.025 556.6 670.88 561.284 664.187L592.28 619.764L564.798 582.745C560.03 576.638 557.645 571.326 557.645 566.808C557.645 563.294 559.068 560.241 561.912 557.648C564.756 555.054 568.479 553.757 573.08 553.757C577.096 553.757 580.421 554.887 583.057 557.146C585.692 559.404 588.766 562.96 592.28 567.812L614.492 598.18L636.075 567.812C639.673 562.793 642.789 559.195 645.424 557.02C648.06 554.845 651.343 553.757 655.275 553.757C659.793 553.757 663.537 555.033 666.506 557.585C669.476 560.136 670.961 563.211 670.961 566.808C670.961 569.402 670.355 571.89 669.142 574.275C667.929 576.659 666.067 579.482 663.557 582.745L636.075 619.764L667.071 664.187C671.923 671.131 674.349 676.359 674.349 679.873C674.349 683.47 672.844 686.566 669.832 689.159C666.82 691.753 663.097 693.049 658.663 693.049C654.731 693.049 651.406 691.92 648.687 689.661C645.968 687.402 642.852 683.805 639.338 678.869Z" fill-rule="evenodd"/>
<path clip-path="url(#TextBounds_3)" d="M566.931 854.176L570.696 854.176L570.696 833.596C570.696 828.075 570.843 823.745 571.135 820.608C571.428 817.471 572.244 814.773 573.582 812.514C574.921 810.172 576.845 808.269 579.355 806.804C581.865 805.34 584.667 804.608 587.763 804.608C592.113 804.608 596.045 806.24 599.558 809.502C601.901 811.678 603.386 814.334 604.013 817.471C604.641 820.608 604.954 825.063 604.954 830.836L604.954 854.176L617.503 854.176C622.355 854.176 626.057 855.327 628.609 857.627C631.161 859.928 632.436 862.877 632.436 866.474C632.436 871.075 630.617 874.296 626.978 876.137C623.338 877.977 618.131 878.898 611.354 878.898L604.954 878.898L604.954 941.893C604.954 947.247 605.143 951.367 605.519 954.253C605.896 957.139 606.899 959.482 608.531 961.281C610.162 963.079 612.818 963.979 616.499 963.979C618.507 963.979 621.226 963.623 624.656 962.912C628.086 962.201 630.763 961.845 632.687 961.845C635.448 961.845 637.937 962.954 640.154 965.171C642.371 967.388 643.479 970.127 643.479 973.39C643.479 978.912 640.468 983.136 634.444 986.065C628.421 988.993 619.762 990.457 608.468 990.457C597.76 990.457 589.645 988.658 584.123 985.061C578.602 981.463 574.984 976.486 573.269 970.127C571.554 963.769 570.696 955.278 570.696 944.653L570.696 878.898L566.179 878.898C561.243 878.898 557.478 877.726 554.885 875.384C552.291 873.041 550.994 870.072 550.994 866.474C550.994 862.877 552.354 859.928 555.073 857.627C557.792 855.327 561.745 854.176 566.931 854.176Z" fill-rule="evenodd"/>
<path clip-path="url(#TextBounds_3)" d="M660.671 1226.63L593.66 1226.63C593.744 1234.41 595.313 1241.27 598.366 1247.21C601.42 1253.15 605.477 1257.62 610.539 1260.63C615.6 1263.64 621.184 1265.15 627.291 1265.15C631.391 1265.15 635.134 1264.67 638.523 1263.71C641.911 1262.75 645.194 1261.24 648.373 1259.19C651.552 1257.14 654.48 1254.94 657.158 1252.6C659.835 1250.26 663.306 1247.08 667.573 1243.06C669.33 1241.56 671.84 1240.81 675.102 1240.81C678.616 1240.81 681.46 1241.77 683.636 1243.69C685.811 1245.62 686.898 1248.34 686.898 1251.85C686.898 1254.94 685.685 1258.56 683.259 1262.7C680.833 1266.84 677.173 1270.82 672.279 1274.62C667.385 1278.43 661.236 1281.59 653.832 1284.1C646.428 1286.61 637.916 1287.86 628.295 1287.86C606.293 1287.86 589.185 1281.59 576.971 1269.04C564.756 1256.49 558.649 1239.47 558.649 1217.97C558.649 1207.84 560.155 1198.45 563.167 1189.79C566.179 1181.14 570.571 1173.71 576.343 1167.52C582.116 1161.33 589.227 1156.58 597.676 1153.28C606.126 1149.97 615.495 1148.32 625.785 1148.32C639.171 1148.32 650.653 1151.14 660.232 1156.79C669.811 1162.44 676.985 1169.74 681.753 1178.69C686.522 1187.64 688.906 1196.76 688.906 1206.05C688.906 1214.66 686.438 1220.25 681.502 1222.8C676.566 1225.35 669.623 1226.63 660.671 1226.63ZM593.66 1207.17L655.777 1207.17C654.941 1195.46 651.782 1186.7 646.303 1180.89C640.823 1175.07 633.608 1172.16 624.656 1172.16C616.123 1172.16 609.116 1175.11 603.637 1181.01C598.157 1186.91 594.832 1195.63 593.66 1207.17Z" fill-rule="evenodd"/>
</g>
</g>
</svg>
